<?xml version="1.0" standalone="no"?>
<!DOCTYPE svg PUBLIC "-//W3C//DTD SVG 20010904//EN"
 "http://www.w3.org/TR/2001/REC-SVG-20010904/DTD/svg10.dtd">
<svg version="1.0" xmlns="http://www.w3.org/2000/svg"
 width="196.000000pt" height="196.000000pt" viewBox="0 0 196.000000 196.000000"
 preserveAspectRatio="xMidYMid meet">
<metadata>
Created by potrace 1.11, written by Peter Selinger 2001-2013
</metadata>
<g transform="translate(0.000000,196.000000) scale(0.100000,-0.100000)"
fill="#000000" stroke="none">
<path d="M745 1923 c-349 -74 -638 -366 -709 -715 -21 -99 -20 -277 0 -376 20
-99 64 -210 116 -292 23 -36 41 -70 41 -77 0 -7 4 -10 8 -7 9 5 35 -36 31 -49
-1 -5 1 -6 6 -3 5 3 38 -25 72 -62 35 -37 60 -61 55 -53 -6 10 -4 12 4 7 7 -5
10 -14 7 -21 -7 -19 5 -27 20 -14 10 9 15 7 20 -5 3 -9 10 -13 15 -10 5 3 9
-2 9 -10 0 -8 5 -18 12 -22 7 -4 8 -3 4 4 -5 8 -2 10 8 6 9 -3 13 -10 10 -15
-3 -5 2 -6 10 -3 9 3 16 1 16 -5 0 -6 3 -10 8 -9 11 2 82 -32 82 -40 0 -4 11
-8 25 -9 45 -4 52 -6 52 -20 0 -17 -14 -17 -20 0 -4 9 -6 9 -6 0 -2 -21 22
-26 36 -8 7 11 13 13 13 7 0 -7 9 -11 23 -8 12 2 31 -2 42 -10 23 -17 39 -18
29 -3 -5 8 -1 8 14 0 11 -6 27 -8 35 -6 7 3 20 -2 28 -11 12 -15 12 -17 0 -9
-10 6 -12 4 -6 -5 5 -9 4 -11 -4 -6 -6 4 -9 12 -6 17 4 5 1 9 -4 9 -16 0 -13
-27 4 -33 8 -4 23 5 36 21 12 15 19 19 16 10 -4 -12 -1 -18 9 -18 11 0 14 5 9
18 -5 13 -4 14 6 5 10 -10 9 -16 -1 -28 -11 -13 -10 -14 4 -9 12 4 15 2 10 -9
-3 -8 -1 -18 5 -22 7 -3 8 0 5 9 -8 21 27 37 48 22 10 -7 16 -15 13 -18 -3 -2
2 -5 10 -5 10 0 12 4 5 12 -5 7 -7 15 -3 19 4 4 0 4 -9 1 -9 -4 -19 -2 -23 4
-4 8 -13 8 -28 0 -21 -10 -21 -9 -3 5 10 9 22 13 27 11 4 -3 9 -2 12 2 2 5 2
2 1 -4 -5 -18 6 -16 23 5 8 9 12 12 9 5 -10 -19 4 -42 21 -36 12 5 14 3 8 -8
-8 -12 -6 -12 8 0 19 15 23 26 5 15 -7 -4 -8 -3 -4 5 6 9 14 8 32 -4 14 -9 29
-13 34 -10 6 4 13 -1 16 -10 5 -13 9 -14 15 -4 11 19 2 28 -25 23 -27 -5 -40
15 -24 37 8 11 9 11 4 -3 -3 -10 -1 -20 4 -23 6 -4 10 2 11 12 0 15 2 15 7 3
7 -16 25 -20 38 -7 4 4 0 7 -9 7 -10 0 -17 5 -17 12 0 6 3 8 7 5 3 -4 12 -2
20 5 10 8 12 8 8 -4 -10 -24 25 -17 42 9 8 12 20 23 27 23 6 0 4 -4 -4 -10 -8
-5 -11 -12 -7 -16 4 -4 13 -2 19 4 15 15 28 16 28 2 0 -6 -5 -9 -11 -8 -6 2
-14 -3 -16 -10 -3 -8 1 -10 14 -5 25 9 34 25 21 40 -7 9 -7 13 1 13 6 0 11 -4
11 -10 0 -5 4 -10 9 -10 5 0 7 10 5 23 l-5 22 10 -22 c7 -15 16 -21 26 -17 8
3 13 10 10 15 -3 4 5 13 17 20 22 12 22 12 5 -14 -15 -24 -15 -26 1 -39 16
-12 16 -11 2 6 -14 18 -13 19 2 13 10 -3 23 0 30 7 7 7 18 14 23 17 6 2 9 7 7
12 -4 12 10 8 32 -11 21 -17 21 -17 4 3 -18 22 -9 53 11 41 6 -4 11 0 11 9 0
9 -5 13 -11 9 -7 -4 -6 3 2 17 7 13 12 31 11 39 -2 9 2 8 9 -4 9 -15 9 -21 1
-24 -7 -2 -12 -8 -12 -13 0 -6 4 -8 9 -4 6 3 8 -6 5 -20 l-5 -26 22 19 c11 11
20 23 20 26 -1 4 11 18 26 31 23 20 25 26 13 34 -8 5 -17 8 -21 5 -10 -6 -5
24 6 33 4 4 5 2 1 -5 -5 -9 -1 -15 12 -19 11 -2 25 -14 31 -26 8 -15 10 -16 6
-4 -8 28 4 40 23 25 10 -8 13 -8 9 -1 -4 6 5 25 19 42 14 17 22 31 17 31 -4 1
6 7 22 15 25 12 26 14 5 9 -30 -8 -51 -24 -45 -34 3 -4 -3 -14 -12 -21 -14
-12 -15 -11 -8 11 4 14 12 27 17 28 5 2 3 11 -4 20 -10 14 -10 15 1 5 14 -12
44 -6 36 7 -3 5 0 12 6 16 8 5 9 3 4 -7 -8 -12 -6 -12 8 0 12 9 17 10 17 2 0
-7 5 -9 11 -5 8 4 7 9 -2 15 -13 8 -5 13 14 10 4 0 6 2 6 6 -3 20 2 26 11 13
5 -8 10 -10 10 -5 0 19 -18 38 -29 31 -6 -4 -8 -12 -5 -18 5 -7 2 -8 -6 -3 -9
6 -11 4 -5 -5 5 -8 4 -11 -3 -6 -13 8 -5 36 10 36 5 0 7 4 3 10 -3 5 -13 7
-23 4 -14 -5 -14 -4 -2 4 10 8 19 7 29 -1 11 -10 13 -8 8 8 -4 11 -2 27 4 35
8 12 9 11 5 -5 -6 -23 9 -53 21 -42 4 5 1 12 -7 17 -8 5 -11 12 -7 16 3 4 14
1 24 -7 9 -8 14 -9 10 -2 -4 6 -3 14 2 18 6 3 7 13 4 23 -6 15 -5 16 13 2 17
-13 18 -13 7 0 -8 10 -9 21 -3 30 7 11 3 20 -13 33 l-22 17 28 -10 c16 -6 26
-6 22 -1 -3 5 -1 12 4 15 5 4 7 21 5 39 -3 21 -2 27 4 19 7 -11 11 -9 15 8 4
15 -2 30 -18 46 -13 13 -20 24 -14 24 6 0 8 4 5 8 -3 5 1 9 9 9 7 0 12 -8 10
-17 -2 -9 3 -17 10 -17 8 0 12 4 9 9 -3 4 3 8 13 9 14 0 13 2 -6 10 -19 8 -21
12 -11 24 9 11 9 15 1 15 -7 0 -9 5 -6 10 4 7 14 6 28 -1 19 -9 18 -7 -3 10
-20 17 -22 21 -7 21 9 0 17 4 17 10 0 5 -7 7 -16 3 -14 -5 -15 -3 -5 15 7 14
8 23 1 27 -10 6 -14 -1 -11 -19 1 -4 -4 -15 -11 -24 -7 -9 -8 -13 -2 -9 6 3
11 0 11 -8 0 -8 -4 -12 -8 -9 -4 2 -6 -7 -3 -21 2 -14 0 -25 -5 -25 -6 0 -8 9
-6 20 2 11 -2 20 -8 20 -8 0 -8 3 -2 8 14 10 17 32 5 32 -6 0 -10 8 -10 17 0
15 1 15 13 -2 13 -16 14 -15 15 14 0 17 -4 31 -9 31 -6 0 -7 -5 -3 -12 5 -7 3
-8 -6 -3 -10 6 -9 11 5 22 17 12 14 18 -7 14 -14 -2 -8 8 11 18 15 9 18 7 16
-14 -2 -13 3 -26 10 -29 10 -3 12 0 8 11 -4 10 -2 14 4 10 6 -4 10 -1 9 5 -3
25 -18 39 -34 33 -15 -5 -32 10 -32 29 0 6 7 1 16 -10 13 -16 15 -16 10 -2 -3
10 -1 20 5 23 5 4 8 1 7 -6 -2 -6 4 -14 12 -16 12 -4 12 -3 2 5 -8 5 -13 12
-13 16 1 3 0 8 0 11 -5 19 -3 31 5 37 6 4 7 10 4 14 -4 3 -14 -1 -23 -10 -12
-12 -13 -16 -3 -16 10 0 10 -2 -1 -9 -9 -6 -10 -10 -2 -14 8 -4 8 -5 0 -3 -22
4 -17 36 8 56 27 21 24 26 -6 10 -15 -8 -18 -5 -17 13 1 12 -5 33 -14 47 -8
13 -10 21 -5 18 6 -4 17 2 23 13 12 19 11 19 -9 9 -13 -7 -19 -8 -15 -2 3 6 2
13 -3 16 -5 4 -8 14 -6 24 1 9 -4 24 -12 33 -12 14 -12 17 2 22 8 4 23 4 33 1
16 -5 16 -5 0 6 -10 6 -26 10 -35 8 -12 -2 -17 2 -15 12 2 8 -5 20 -15 28 -10
7 -17 16 -17 20 3 12 -14 50 -26 57 -5 3 -8 11 -5 16 4 5 1 9 -5 9 -6 0 -9 4
-5 9 3 6 -3 14 -12 20 -16 9 -16 10 -1 11 9 0 19 4 22 8 2 4 -7 8 -22 7 -19 0
-28 6 -30 20 -2 11 -9 25 -14 30 -8 7 -9 5 -4 -5 4 -8 -2 -3 -14 12 -11 15
-36 42 -55 61 -19 19 -31 38 -27 42 4 3 3 5 -3 3 -16 -5 -76 45 -71 59 3 7 -1
10 -8 7 -7 -3 -42 13 -77 35 -82 51 -193 95 -291 115 -97 20 -288 20 -383 -1z
m1175 -917 c0 -3 -4 -8 -10 -11 -5 -3 -10 -1 -10 4 0 6 5 11 10 11 6 0 10 -2
10 -4z m-45 -246 c-3 -5 -1 -10 4 -10 6 0 2 -9 -9 -20 -21 -21 -28 -46 -10
-35 13 8 9 -17 -4 -27 -12 -8 -36 1 -36 14 0 6 6 5 15 -2 18 -15 20 1 3 18 -9
9 -9 12 0 12 7 0 12 5 12 11 0 5 -6 7 -12 3 -7 -4 -2 5 11 19 25 27 37 35 26
17z m-33 -134 c5 4 3 -5 -6 -19 -9 -13 -15 -29 -14 -35 2 -5 0 -10 -4 -11 -5
-1 -8 2 -7 6 0 4 -8 10 -18 14 -16 7 -15 8 5 8 12 1 22 6 22 12 0 5 -4 7 -10
4 -6 -4 -7 1 -3 12 6 16 5 17 -12 3 -17 -14 -17 -14 -5 6 12 19 15 20 28 8 7
-8 18 -11 24 -8z m-103 -165 c9 -6 10 -11 2 -15 -6 -4 -11 -2 -11 4 0 6 -4 8
-10 5 -5 -3 -10 -1 -10 4 0 13 10 14 29 2z m-79 -60 c0 -5 -7 -12 -16 -15 -14
-5 -15 -4 -4 9 14 17 20 19 20 6z m-10 -61 c7 -14 9 -22 5 -18 -5 4 -15 2 -24
-4 -9 -7 -13 -8 -9 -4 4 5 2 16 -5 24 -9 13 -9 14 1 8 8 -5 12 -1 12 10 0 20
3 18 20 -16z m-61 -53 c9 3 5 -4 -9 -15 -14 -12 -25 -26 -25 -33 0 -7 -6 -14
-13 -17 -11 -3 -12 0 -2 17 9 17 9 26 -1 39 -11 14 -11 15 1 5 21 -19 34 -16
19 5 -11 14 -11 15 0 5 7 -6 21 -9 30 -6z m-115 -82 c-4 -8 -11 -12 -17 -8 -8
5 -7 8 1 11 7 2 9 9 6 14 -4 7 -2 8 4 4 6 -4 9 -13 6 -21z m-27 -30 c0 -8 -3
-13 -5 -10 -3 3 -14 -2 -24 -12 -11 -9 -18 -11 -18 -5 0 7 4 12 10 12 5 0 7 7
4 15 -4 8 -1 15 6 15 9 0 9 4 -1 18 -13 16 -13 16 7 -1 11 -9 21 -24 21 -32z
m-77 11 c0 -3 -4 -8 -10 -11 -5 -3 -10 -1 -10 4 0 6 5 11 10 11 6 0 10 -2 10
-4z m-283 -92 c-3 -3 -12 -4 -19 -1 -8 3 -5 6 6 6 11 1 17 -2 13 -5z m-37 -14
c0 -5 -5 -10 -11 -10 -5 0 -7 5 -4 10 3 6 8 10 11 10 2 0 4 -4 4 -10z"/>
<path d="M1755 1480 c-3 -5 -1 -10 4 -10 6 0 11 5 11 10 0 6 -2 10 -4 10 -3 0
-8 -4 -11 -10z"/>
<path d="M1790 1420 c13 -25 27 -33 35 -20 4 6 1 9 -7 8 -7 -2 -12 2 -11 9 1
6 -4 14 -13 17 -12 4 -12 2 -4 -14z"/>
<path d="M1849 1300 c-4 -32 -3 -40 6 -40 5 0 10 11 11 25 1 23 -14 37 -17 15z"/>
<path d="M1870 1215 c-10 -11 -10 -19 -2 -27 6 -6 9 -16 8 -22 -2 -6 -1 -8 1
-3 3 4 9 5 14 2 5 -4 6 1 3 9 -3 9 -10 16 -15 16 -5 0 -9 5 -9 11 0 5 5 7 12
3 7 -5 8 -3 3 6 -6 10 -4 12 9 7 10 -4 15 -3 11 3 -9 14 -21 12 -35 -5z"/>
<path d="M1914 1099 c-3 -6 -1 -16 5 -22 9 -9 10 -7 5 7 -6 15 -4 17 6 11 9
-5 11 -4 6 3 -9 15 -13 15 -22 1z"/>
<path d="M1890 691 c0 -6 4 -13 10 -16 6 -3 7 1 4 9 -7 18 -14 21 -14 7z"/>
<path d="M1736 373 c-6 -14 -5 -15 5 -6 7 7 10 15 7 18 -3 3 -9 -2 -12 -12z"/>
<path d="M1693 325 c0 -8 4 -12 9 -9 5 3 6 10 3 15 -9 13 -12 11 -12 -6z"/>
<path d="M1585 240 c-3 -6 1 -7 9 -4 18 7 21 14 7 14 -6 0 -13 -4 -16 -10z"/>
<path d="M475 180 c3 -5 8 -10 11 -10 2 0 4 5 4 10 0 6 -5 10 -11 10 -5 0 -7
-4 -4 -10z"/>
<path d="M510 180 c0 -5 5 -10 11 -10 5 0 7 5 4 10 -3 6 -8 10 -11 10 -2 0 -4
-4 -4 -10z"/>
<path d="M555 141 c-3 -5 0 -13 6 -17 7 -4 9 -3 5 4 -3 5 0 13 6 15 9 4 10 6
1 6 -6 1 -14 -3 -18 -8z"/>
<path d="M615 116 c0 -13 3 -22 8 -19 4 2 7 13 7 24 0 10 -3 19 -7 19 -5 0 -8
-11 -8 -24z"/>
<path d="M1323 123 c-10 -3 -10 -8 1 -19 18 -18 32 -18 17 -1 -6 8 -8 17 -4
20 7 8 4 8 -14 0z"/>
<path d="M1350 121 c0 -5 5 -13 10 -16 6 -3 10 -2 10 4 0 5 -4 13 -10 16 -5 3
-10 2 -10 -4z"/>
<path d="M714 103 c3 -4 0 -13 -7 -22 -11 -14 -10 -15 7 -1 11 8 21 14 23 13
1 -2 4 0 6 4 1 3 -6 7 -16 9 -11 1 -16 0 -13 -3z"/>
<path d="M1218 88 c-13 -15 -18 -18 -18 -8 0 13 -2 13 -10 0 -5 -8 -5 -19 0
-25 4 -5 9 -14 10 -20 1 -5 3 -12 6 -14 2 -2 2 6 -1 17 -2 11 5 28 15 37 17
15 19 15 29 -2 6 -10 11 -13 11 -7 0 5 -6 18 -12 27 -12 15 -14 15 -30 -5z"/>
<path d="M675 90 c-3 -6 1 -7 9 -4 18 7 21 14 7 14 -6 0 -13 -4 -16 -10z"/>
<path d="M1300 90 c-8 -5 -12 -12 -9 -15 4 -3 12 1 19 10 14 17 11 19 -10 5z"/>
<path d="M755 80 c-3 -5 -1 -10 4 -10 6 0 11 5 11 10 0 6 -2 10 -4 10 -3 0 -8
-4 -11 -10z"/>
<path d="M785 80 c-3 -5 -1 -10 6 -10 6 0 18 -8 26 -17 12 -16 12 -14 2 10
-13 28 -24 34 -34 17z"/>
<path d="M887 50 c3 -11 9 -20 15 -20 5 0 4 9 -2 20 -6 11 -12 20 -14 20 -2 0
-2 -9 1 -20z"/>
<path d="M859 33 c-13 -16 -12 -17 4 -4 9 7 17 15 17 17 0 8 -8 3 -21 -13z"/>
<path d="M968 43 c6 -2 9 -10 6 -15 -4 -7 -2 -8 5 -4 13 9 5 26 -12 25 -9 0
-8 -2 1 -6z"/>
<path d="M1074 38 c-4 -6 -3 -8 4 -4 5 3 13 0 15 -6 3 -8 6 -6 6 5 1 19 -14
23 -25 5z"/>
</g>
</svg>
